<svg width="160" height="160" viewBox="0 0 160 160" xmlns="http://www.w3.org/2000/svg" role="img" aria-label="AXIOMBYTE HUB icon">
  <defs>
    <linearGradient id="topFace" x1="0" y1="0" x2="0.4" y2="1">
      <stop offset="0" stop-color="#34d399"/>
      <stop offset="1" stop-color="#10B981"/>
    </linearGradient>
    <linearGradient id="rightFace" x1="0" y1="0" x2="1" y2="1">
      <stop offset="0" stop-color="#0d9466"/>
      <stop offset="1" stop-color="#047857"/>
    </linearGradient>
    <linearGradient id="bottomFace" x1="0" y1="0" x2="0" y2="1">
      <stop offset="0" stop-color="#065f46"/>
      <stop offset="1" stop-color="#0F172A"/>
    </linearGradient>
  </defs>

  <ellipse cx="82" cy="148" rx="66" ry="11" fill="#0F172A" opacity="0.18"/>
  <polygon points="22,116 130,116 148,134 40,134" fill="url(#bottomFace)"/>
  <polygon points="130,18 130,116 148,134 148,36" fill="url(#rightFace)"/>

  <rect x="20" y="14" width="110" height="104" rx="26" fill="url(#topFace)"/>
  <rect x="20" y="14" width="110" height="104" rx="26" fill="none" stroke="#ffffff" stroke-opacity="0.4" stroke-width="1.5"/>

  <g stroke="#ffffff" stroke-width="13" stroke-linecap="round" stroke-linejoin="round" fill="none">
    <path d="M75 38 L52 100"/>
    <path d="M75 38 L98 100"/>
  </g>
  <rect x="60" y="80" width="30" height="11" rx="5" fill="#ffffff"/>
  <circle cx="75" cy="38" r="7" fill="#ffffff"/>
</svg>
